<svg width="298" height="298" viewBox="0 0 298 298" fill="none" xmlns="http://www.w3.org/2000/svg">
<g id="Img-8">
<g id="Group">
<path id="Blob" fill-rule="evenodd" clip-rule="evenodd" d="M163.367 25.8267C233.036 25.8267 247.703 122.378 247.988 123.172C248.282 123.991 248.559 124.833 248.826 125.651C249.369 127.312 250.069 128.91 250.612 130.56C250.945 131.567 251.556 132.4 251.965 133.351C252.76 135.167 253.733 136.899 254.871 138.523C255.341 139.166 255.71 139.876 255.966 140.63C256.146 141.207 256.742 141.361 256.999 141.87C257.415 142.694 257.969 143.447 258.45 144.238C258.559 144.517 258.81 144.714 259.107 144.756L259.013 145.541C259.187 145.824 259.246 145.442 259.428 145.509C259.656 145.816 259.98 146.088 260.013 146.555C260.043 146.993 260.555 147.035 260.731 147.417C261.115 148.248 262.184 148.672 262.168 149.762C262.936 150.244 263.314 151.072 263.894 151.722C264.191 152.021 264.373 152.415 264.407 152.833L264.412 152.93C264.408 153.346 265.211 153.252 264.995 153.82C266.224 154.742 266.543 156.249 267.193 157.498C268.233 159.502 269.433 161.437 270.14 163.632C270.494 164.729 271.181 165.767 271.563 166.878C272.421 169.377 273.452 171.82 274.01 174.422C274.24 175.496 274.71 176.52 274.93 177.598L275.184 178.843C275.562 180.712 275.92 182.586 276.158 184.48C276.281 184.907 276.28 185.36 276.158 185.787C275.953 186.273 276.498 186.585 276.541 187.073C276.596 187.651 276.365 188.2 276.531 188.814C276.623 189.152 276.531 189.696 276.637 190.089C276.979 191.366 276.546 192.683 276.918 193.951C276.976 194.442 276.925 194.939 276.767 195.407C276.509 196.968 276.981 198.563 276.51 200.088C276.29 200.84 276.248 201.632 276.387 202.401L276.445 202.698C276.486 202.918 276.514 203.132 276.406 203.28C275.978 203.865 276.088 204.556 276.003 205.196L275.987 205.303C275.863 206.02 275.99 206.771 275.774 207.502C275.478 208.217 275.312 208.979 275.283 209.753C275.393 211.064 274.951 212.241 274.681 213.458C274.546 214.066 274.658 214.789 273.988 215.242C273.648 215.472 274.451 215.919 273.964 216.256L273.907 216.291C273.549 216.493 273.565 216.819 273.666 217.209C273.758 217.565 273.135 217.812 273.313 218.176C273.491 218.541 273.572 219.072 273.363 219.139C272.843 219.31 273.372 219.876 272.935 219.983C272.892 220.007 272.863 220.048 272.855 220.097C272.706 221.466 271.824 222.59 271.606 223.959C271.441 224.777 271.122 225.556 270.668 226.255C270.291 226.93 269.971 227.635 269.711 228.363C269.222 229.587 268.384 230.609 267.913 231.827C267.785 232.157 266.931 232.047 267.365 232.723C266.867 232.899 267.018 233.415 266.818 233.738C266.597 233.981 266.34 234.189 266.056 234.355C265.872 235.08 265.519 235.751 265.027 236.315C264.166 237.573 263.227 238.776 262.214 239.917L261.378 240.853C260.26 242.102 259.105 243.324 257.632 244.185C257.253 244.406 257.426 244.826 257.114 245.053C255.308 246.387 253.644 247.9 251.588 248.91C250.728 249.334 249.991 250.086 249.112 250.526C247.445 251.362 245.898 252.404 244.116 253.055L243.799 253.166C242.664 253.544 241.546 254.116 240.394 254.532C238.027 255.462 235.556 256.103 233.036 256.444L231.481 256.616C230.098 256.769 228.714 256.91 227.318 256.948C226.657 256.966 226.023 256.756 225.418 256.832C224.829 256.906 224.231 256.858 223.661 256.69C223.211 256.565 222.831 256.952 222.346 256.744C221.974 256.511 221.513 256.476 221.112 256.646L221.033 256.683C220.803 256.816 220.351 256.57 220.001 256.491C219.49 256.419 218.989 256.296 218.504 256.121C218.128 255.947 217.65 256.505 217.388 255.912C216.913 256.28 184.636 248.61 154.986 264.186C152.572 265.785 149.747 266.488 147.167 267.73C145.967 268.309 144.619 268.573 143.328 268.969L143.052 269.056C140.773 269.792 138.436 270.295 136.102 270.82C133.958 271.284 131.785 271.607 129.599 271.786C128.026 271.928 126.447 271.994 124.878 272.166C124.242 272.235 123.619 271.787 122.997 272.172C121.598 271.791 120.13 272.253 118.736 271.823C117.808 272.098 116.937 271.757 116.085 271.506C115.434 271.313 114.821 271.714 114.164 271.43C113.565 271.118 112.895 270.969 112.221 270.998C111.101 271.17 110.126 270.759 109.107 270.542C106.737 270.037 104.376 269.492 102.023 268.905C101.253 268.713 100.387 268.787 99.7272 268.198C99.1482 267.681 98.2343 268.005 97.6653 267.394C97.4576 267.172 97.1927 267.603 96.8799 267.435C96.2699 267.107 95.4857 267.323 94.9156 266.732C94.4934 266.295 93.6964 266.591 93.2289 266.062L93.1672 265.985C92.8914 265.602 92.1632 266.505 91.9478 265.652C91.0778 265.585 90.3567 265.111 89.5818 264.786C88.94 264.518 88.1825 264.669 87.6032 264.11C87.1097 263.634 86.1769 263.984 85.7494 263.27C84.7034 263.262 83.932 262.479 82.9352 262.273C82.1785 262.074 81.4519 261.775 80.7748 261.384C79.7014 260.832 78.6114 260.312 77.5134 259.819C77.1194 259.635 76.7359 259.431 76.3645 259.205C76.1563 259.083 76.1058 258.814 75.8083 258.748C73.9254 258.331 72.3418 257.234 70.7334 256.274C69.8162 255.8 68.9387 255.253 68.1091 254.64L67.8343 254.433C67.5915 254.224 67.0873 254.121 66.8738 253.831C66.2787 253.023 65.3885 252.627 64.5813 252.142L64.4476 252.06C63.9928 251.792 63.5795 251.459 63.2205 251.073C63.1525 250.999 63.1249 250.839 63.0527 250.821C61.7128 250.491 60.9132 249.384 59.8888 248.61C59.0076 247.945 58.2368 247.135 57.3691 246.457L57.0387 246.21C55.0081 244.758 32.7884 220.308 30.2706 216.088L29.5501 214.881C28.8306 213.671 28.1194 212.453 27.4646 211.21L26.9069 210.152C26.3501 209.092 25.8021 208.024 25.3176 206.937L24.6694 205.487C23.3761 202.585 22.1105 199.669 21.0319 196.673C20.07 194 19.2738 191.284 18.4699 188.564C17.955 186.818 17.5199 185.065 17.1523 183.286C16.5651 180.443 16.0414 177.589 15.5814 174.723C15.1523 172.025 15.311 169.287 14.738 166.619C15.1134 164.981 14.4232 163.318 14.8518 161.682C14.5339 160.874 14.8134 160.035 14.8433 159.239C14.8739 158.417 14.6895 157.555 15.0178 156.722C15.1683 156.344 14.8205 155.889 15.0089 155.426C15.2158 155.042 15.2396 154.585 15.074 154.181C15.6323 153.924 14.9669 153.529 15.1987 153.164C15.4487 152.767 15.5591 152.298 15.5125 151.832C15.35 150.788 15.9513 149.824 15.8457 148.881C15.7356 147.916 16.212 147.099 16.2105 146.234L16.2043 146.072C16.1221 144.937 16.9334 144.082 16.9604 143.009C16.963 142.915 17.185 142.828 17.3067 142.735C17.2677 142.493 17.0006 142.548 16.8112 142.36C17.1136 142.098 17.3782 141.795 17.5975 141.46C17.7635 141.001 17.8814 140.525 17.9493 140.042L17.1803 139.05C17.464 138.483 17.3651 137.966 17.744 137.521C17.9089 137.327 17.8169 136.733 17.8373 136.322C17.8641 135.783 18.5566 135.462 18.3896 135.037C18.2607 134.547 18.3025 134.029 18.508 133.566C19.4987 129.198 20.5079 124.834 21.5355 120.475C21.6436 120.008 21.5496 119.42 22.1246 119.146C21.4963 118.498 22.483 118.271 22.4984 117.757C22.5785 117.276 22.7637 116.819 23.0409 116.418C23.4333 115.668 23.4694 114.736 23.693 113.89C23.7519 113.292 23.9783 112.723 24.3464 112.248C24.7292 111.852 24.6741 111.161 24.9623 110.605C25.3695 109.932 25.6851 109.208 25.9007 108.453C25.9657 107.91 26.1822 107.396 26.5255 106.969C26.8304 106.633 26.58 105.936 27.1726 105.682C27.3388 104.705 27.922 103.921 28.3539 103.065L28.4329 102.903C29.4936 100.701 30.6857 98.5639 32.0029 96.504C33.0972 94.7704 34.1621 93.0183 35.2731 91.2956C35.6345 90.7396 36.0189 90.1854 36.4163 89.6575C37.797 87.7158 39.2843 85.8518 40.8712 84.0741C42.3226 82.536 43.7061 80.9289 45.2299 79.4501C46.04 78.6633 46.703 77.6974 47.4895 76.8616C49.3429 74.8892 51.2463 72.9701 53.2482 71.1486C54.9388 69.4784 56.7876 67.9757 58.7687 66.6616C59.3072 66.3342 59.7501 65.8539 60.27 65.4914C60.9012 65.1437 61.5068 64.7518 62.0824 64.3184C62.7519 63.6887 63.5735 63.2882 64.2498 62.7048C64.7748 62.2522 65.6146 62.5103 65.9904 61.6961C66.2642 61.1036 67.2893 61.3207 67.6345 60.6285C68.5808 60.5971 69.0227 59.6808 69.882 59.3796L69.9966 59.344C70.9019 59.097 71.6747 58.3661 72.5054 57.848C73.3065 57.2807 74.1448 56.7675 75.0147 56.312C76.6477 55.5766 78.0573 54.4561 79.6535 53.6966C81.1755 52.9733 82.5451 51.9146 84.205 51.5114C84.5972 51.4164 84.5241 51.0706 84.794 50.923C85.0748 50.7686 85.3824 50.8709 85.6361 50.6928C86.6858 50.008 93.6987 25.8267 163.367 25.8267Z" fill="#3CA380"/>
<path id="Shape" fill-rule="evenodd" clip-rule="evenodd" d="M84.7802 77.6585C82.4498 78.9732 79.0376 77.296 78.6549 74.6478C80.1413 74.5685 81.7302 74.4525 82.9052 73.5388C84.0802 72.6251 84.4916 70.6016 83.3137 69.6916C73.7245 68.514 64.3961 65.2559 56.1588 60.2073C61.7834 58.5125 66.6232 54.9375 71.9062 52.3689C77.1893 49.8003 83.5792 48.2812 88.8482 50.8785C94.0219 53.4289 99.978 50.1757 105.377 48.145C114.765 44.6138 125.53 44.9098 134.71 48.9516C141.407 51.9005 152.756 47.1141 159.991 46.0164C171.809 44.2233 183.346 52.5062 195.213 51.0718C193.939 51.9135 192.666 52.7553 191.393 53.5971C192.647 53.4825 193.907 53.4362 195.166 53.4583C185.318 58.1711 175.47 62.8838 165.621 67.5965C168.116 68.6057 170.611 69.6148 173.106 70.624C172.519 72.5042 170.417 73.7741 168.48 73.4181C170.039 74.6586 171.597 75.8991 173.156 77.1396C171.492 78.3213 169.386 78.8642 167.359 78.6342C169.518 80.0285 171.301 82.0012 172.47 84.2907C177.614 82.5768 183.249 82.3658 188.508 83.6901C183.757 84.313 179.006 84.9358 174.255 85.5587C174.973 87.5121 175.69 89.4655 176.407 91.4188C182.614 89.9984 189.21 90.3213 195.248 92.3412C189.26 92.4936 183.273 92.646 177.286 92.7983C177.146 100.742 173.191 108.843 166.247 112.703C159.303 116.563 145.427 119.996 140.831 108.756C137.312 111.065 137.562 116.616 140.07 119.996C142.579 123.375 146.565 125.246 150.17 127.418C162.143 134.634 171.175 146.585 174.848 160.074C178.522 173.563 176.797 188.442 170.136 200.734C179.117 202.13 187.462 207.241 192.787 214.606C204.255 209.27 210.606 197.095 219.39 187.995C229.383 177.643 243.176 171.044 257.507 169.761C265.986 169.002 275.655 170.637 280.601 177.565C287.029 186.571 281.102 200.574 270.841 204.714C262.707 207.995 253.533 206.345 244.784 206.965C227.19 208.211 211.744 218.586 197.237 228.617C196.645 231.865 197.833 235.381 200.272 237.606C205.462 232.242 212.008 228.201 219.128 225.965C221.76 225.139 225.705 225.354 225.998 228.098C226.108 229.136 225.562 230.121 225.01 231.006C220.262 238.617 213.568 245.002 205.742 249.385C201.611 251.698 196.995 253.491 192.268 253.227C187.541 252.962 182.727 250.233 181.121 245.779C180.377 243.715 180.297 241.326 178.888 239.644C176.504 236.799 171.924 237.651 168.583 239.267C165.242 240.883 161.679 243.081 158.094 242.122C149.13 239.724 139.801 238.696 130.53 239.084C118.724 239.578 106.694 242.327 95.255 239.362C91.4337 238.372 87.1575 236.809 83.7723 238.84C77.1011 242.842 81.6008 255.653 74.7567 259.352C72.3324 260.662 69.3614 260.179 66.6868 259.515C54.8678 256.582 43.7818 250.74 34.68 242.65C33.8028 241.87 32.8991 240.994 32.6532 239.847C31.9156 236.405 36.9965 234.973 40.4586 235.61C46.3396 236.692 51.9643 239.144 56.7606 242.715C58.442 243.967 61.0002 242.507 61.7125 240.535C62.4248 238.564 61.9347 236.393 61.6567 234.315C59.9008 221.192 68.1337 207.395 80.5167 202.708C73.0195 191.768 70.1687 177.749 72.7971 164.75C75.4255 151.75 83.4983 139.94 94.657 132.771C99.1147 129.907 104.236 127.565 107.077 123.093C109.918 118.621 108.671 111.117 103.474 110.086C98.5774 115.39 90.6127 117.633 83.6681 115.664C76.7234 113.696 71.1203 107.607 69.7346 100.523C65.1252 102.08 60.5158 103.637 55.9064 105.193C59.9977 102.04 64.8427 99.8724 69.9199 98.923C70.4072 96.8116 70.8945 94.7003 71.3818 92.5889C62.5865 92.0216 53.6673 93.4691 45.5029 96.7888C50.527 93.0071 56.9192 91.0854 63.1957 91.4698C69.5797 91.8609 76.0692 88.7373 79.7459 83.5038C77.4455 82.695 75.3781 81.235 73.8466 79.3377C76.1926 78.0642 79.034 77.7342 81.6094 78.4361M129.9 216.132C129.481 216.539 129.031 217.023 129.06 217.607C129.09 218.19 129.965 218.626 130.267 218.126C131.915 215.395 134.782 213.432 137.923 212.882C141.065 212.332 144.428 213.205 146.905 215.213C147.77 215.914 148.542 216.751 149.529 217.264C149.885 217.448 150.493 217.453 150.508 217.053C150.513 216.921 150.438 216.802 150.364 216.693C148.585 214.07 145.924 212.057 142.917 211.058C140.281 210.182 137.226 210.127 134.868 211.596C134.012 212.129 133.282 212.839 132.559 213.543C131.673 214.406 130.786 215.269 129.9 216.132ZM117.116 211.36C113.703 210.909 110.028 212.054 107.756 214.64C107.355 215.096 106.991 215.609 106.853 216.2C106.715 216.791 106.845 217.474 107.303 217.873C109.061 215.141 112.185 213.34 115.43 213.187C118.674 213.034 121.954 214.533 123.962 217.087C124.275 217.486 124.575 217.923 125.02 218.167C125.466 218.41 126.114 218.379 126.386 217.95C126.71 217.437 126.318 216.781 125.918 216.324C123.651 213.734 120.529 211.811 117.116 211.36ZM141.19 207.866C141.137 208.443 141.9 208.802 142.448 208.613C142.996 208.424 143.359 207.92 143.726 207.471C146.777 203.739 152.586 202.615 156.809 204.939C157.363 204.471 157.395 203.574 157.024 202.951C156.653 202.328 155.977 201.945 155.286 201.725C153.79 201.247 152.166 201.41 150.627 201.721C146.984 202.458 143.304 204.185 141.389 207.37C141.297 207.524 141.207 207.687 141.19 207.866ZM126.868 219.973C125.371 220.077 123.906 220.473 122.504 221.009C120.567 221.751 118.66 222.831 117.526 224.567C119.189 225.038 120.783 223.798 122.302 222.974C125.71 221.125 130.13 221.316 133.365 223.452C134.38 224.123 135.684 224.989 136.674 224.281C134.358 221.379 130.573 219.715 126.868 219.973ZM133.019 219.036C134.155 218.445 135.063 217.484 136.189 216.874C137.741 216.035 139.673 215.938 141.301 216.618C142.184 216.987 142.967 217.565 143.837 217.963C144.708 218.362 145.745 218.569 146.613 218.163C146.709 218.118 146.809 218.059 146.85 217.961C146.916 217.801 146.798 217.629 146.685 217.499C144.743 215.283 141.701 214.083 138.77 214.375C135.839 214.668 133.094 216.446 131.629 219.002C131.935 219.405 132.571 219.27 133.019 219.036ZM110.277 219.142C110.885 218.796 111.361 218.262 111.918 217.837C113.03 216.987 114.479 216.596 115.869 216.757C117.419 216.937 118.816 217.757 120.097 218.647C120.472 218.907 120.854 219.181 121.299 219.284C121.743 219.387 122.273 219.275 122.524 218.895C122.773 218.518 122.673 217.993 122.407 217.628C122.141 217.264 121.741 217.024 121.352 216.796C119.768 215.867 118.094 214.938 116.261 214.844C113.969 214.725 111.838 215.92 109.856 217.077C109.052 217.546 108.129 218.257 108.299 219.172C108.849 219.604 109.668 219.488 110.277 219.142ZM120.599 210.257C121.013 210.793 121.823 210.219 122.28 209.72C123.687 208.182 125.715 207.23 127.797 207.13C129.879 207.03 131.989 207.784 133.537 209.179C133.928 209.531 134.339 209.947 134.865 209.961C135.39 209.976 135.864 209.242 135.447 208.922C133.215 207.207 130.619 205.806 127.811 205.621C125.003 205.436 121.976 206.696 120.676 209.192C120.502 209.526 120.369 209.959 120.599 210.257ZM145.427 209.788C145.798 209.631 146.069 209.312 146.353 209.027C148.514 206.854 152.174 206.368 154.827 207.902C155.49 208.286 156.488 208.71 156.874 208.047C157.195 207.495 156.622 206.852 156.076 206.52C152.508 204.357 147.421 205.181 144.719 208.361C144.444 208.684 144.179 209.128 144.369 209.509C144.548 209.869 145.057 209.945 145.427 209.788ZM147.4 209.992C147.246 210.12 147.093 210.264 147.029 210.453C146.849 210.981 147.491 211.476 148.047 211.432C148.603 211.387 149.077 211.03 149.581 210.792C150.812 210.211 152.292 210.35 153.541 210.889C154.035 211.103 154.514 211.378 155.047 211.458C155.579 211.539 156.2 211.362 156.443 210.881C154.325 208.257 149.988 207.83 147.4 209.992ZM113.921 208.985C114.237 209.133 114.668 209.105 114.871 208.821C115.148 208.435 114.852 207.91 114.558 207.537C113.564 206.273 112.495 205.029 111.129 204.182C109.763 203.334 108.043 202.926 106.522 203.446C106.367 204.008 107.066 204.389 107.617 204.581C109.736 205.32 111.659 206.613 113.143 208.296C113.374 208.558 113.605 208.837 113.921 208.985ZM132.646 210.395C130.146 208.8 126.732 208.772 124.206 210.326C123.767 210.596 123.316 210.975 123.282 211.49C123.247 212.004 123.946 212.482 124.292 212.1C125.688 210.561 128.238 210.242 129.97 211.389C130.82 211.952 132.042 211.875 132.815 211.21C133.18 211.172 132.956 210.593 132.646 210.395ZM150.838 219.024C147.284 218.785 143.978 220.875 141.399 223.331C141.587 223.765 142.227 223.65 142.661 223.462C145.598 222.191 148.535 220.92 151.472 219.649C151.693 219.357 151.203 219.049 150.838 219.024ZM117.02 220.607C117.457 220.855 117.885 221.192 118.388 221.192C118.89 221.192 119.388 220.588 119.069 220.199C118.066 218.976 116.489 218.245 114.907 218.269C113.325 218.293 111.772 219.072 110.806 220.326C110.925 220.781 111.483 220.991 111.948 220.923C112.414 220.855 112.825 220.593 113.257 220.405C114.452 219.888 115.888 219.965 117.02 220.607ZM134.64 220.273C134.6 220.623 134.997 220.891 135.348 220.871C135.7 220.852 136.009 220.646 136.317 220.477C137.611 219.764 139.205 219.617 140.608 220.083C141.506 220.382 142.628 220.869 143.276 220.179C143.333 219.785 142.938 219.488 142.586 219.301C141.326 218.631 139.94 218.125 138.513 218.138C137.086 218.152 135.614 218.75 134.799 219.922C134.725 220.028 134.655 220.144 134.64 220.273ZM131.988 204.92C133.457 205.446 134.825 206.252 135.997 207.282C136.48 207.707 136.942 208.177 137.528 208.442C138.114 208.706 138.875 208.713 139.334 208.263C138.319 207.484 137.485 206.471 136.917 205.325C136.61 204.708 135.794 204.595 135.105 204.561C134.099 204.512 133.094 204.463 132.088 204.413C131.981 204.556 131.944 204.748 131.988 204.92ZM118.868 208.453C119.387 207.967 119.771 207.356 120.25 206.832C120.995 206.019 121.975 205.425 123.039 205.141C123.499 205.018 124.103 204.783 124.033 204.313C122.732 204.087 121.247 203.904 120.221 204.736C118.783 205.9 117.644 207.43 116.938 209.14C117.632 209.293 118.349 208.938 118.868 208.453ZM107.3 207.864C108.232 208.471 109.165 209.079 110.098 209.687C110.492 209.944 110.997 210.207 111.406 209.974C111.786 209.758 111.844 209.201 111.646 208.811C111.448 208.421 111.07 208.16 110.708 207.916C109.948 207.405 109.189 206.893 108.43 206.382C107.794 205.954 106.758 205.612 106.412 206.297C106.114 206.886 106.746 207.503 107.3 207.864ZM126.937 215.169C127.294 215.523 127.794 215.906 128.247 215.688C128.454 215.589 128.587 215.386 128.71 215.192C129.114 214.553 129.518 213.914 129.923 213.275C128.864 212.098 126.786 212.067 125.692 213.211C125.608 213.299 125.526 213.4 125.511 213.521C125.488 213.712 125.635 213.877 125.772 214.013C126.16 214.398 126.549 214.783 126.937 215.169ZM110.616 224.307C111.375 224.573 112.27 224.651 112.939 224.206C111.932 223.048 110.751 222.04 109.449 221.228C109.08 220.997 108.663 220.775 108.232 220.836C107.801 220.897 107.42 221.387 107.628 221.77C108.269 222.942 109.355 223.864 110.616 224.307ZM152.23 214.997C152.588 214.564 152.946 214.131 153.305 213.698C153.428 213.548 153.559 213.38 153.551 213.187C153.541 212.941 153.316 212.764 153.102 212.644C152.357 212.225 151.478 212.05 150.629 212.152C150.305 212.191 149.967 212.28 149.739 212.514C149.511 212.748 149.445 213.163 149.674 213.396C150.195 213.923 150.715 214.45 151.235 214.977C151.405 215.149 151.621 215.336 151.857 215.285C152.014 215.251 152.128 215.12 152.23 214.997ZM114.827 205.64C115.148 205.986 115.552 206.34 116.023 206.301C117.032 206.218 117.358 204.476 118.366 204.571C118.637 204.125 117.898 203.768 117.376 203.759C116.025 203.738 114.675 203.717 113.324 203.695C113.765 204.387 114.268 205.039 114.827 205.64ZM123.17 224.626C125.98 224.614 128.79 224.602 131.599 224.59C131.353 224.034 130.694 223.809 130.099 223.685C128.149 223.281 126.104 223.343 124.182 223.864C123.752 223.981 123.261 224.19 123.17 224.626ZM140.52 221.67C139.59 221.712 138.66 221.754 137.731 221.796C137.43 221.809 137.045 221.896 137.008 222.194C136.992 222.328 137.059 222.456 137.123 222.573C137.369 223.02 137.631 223.484 138.056 223.765C138.481 224.046 139.121 224.074 139.451 223.686C139.705 223.389 139.725 222.925 140.027 222.677C140.222 222.518 140.492 222.486 140.707 222.356C140.923 222.226 141.06 221.887 140.86 221.734C140.767 221.662 140.638 221.664 140.52 221.67ZM116.446 223.225C116.695 222.837 116.46 222.289 116.073 222.039C115.686 221.79 115.202 221.76 114.742 221.737C114.234 221.712 113.565 221.805 113.474 222.306C113.431 222.544 113.552 222.778 113.67 222.99C114.014 223.612 114.521 224.325 115.229 224.255C115.777 224.201 116.149 223.689 116.446 223.225ZM153.174 217.649C153.591 217.684 153.965 217.401 154.258 217.102C155.151 216.189 155.718 214.964 155.838 213.693C155.543 213.504 155.182 213.797 154.955 214.065C154.195 214.964 153.435 215.863 152.674 216.762C152.404 217.081 152.756 217.615 153.174 217.649ZM106.665 211.281C107.089 211.811 107.907 211.977 108.505 211.654C108.811 211.489 109.069 211.161 109.008 210.818C108.954 210.514 108.676 210.307 108.42 210.133C108.051 209.88 107.681 209.628 107.311 209.376C107.198 209.299 107.069 209.219 106.935 209.246C106.842 209.265 106.768 209.333 106.706 209.404C106.26 209.916 106.241 210.75 106.665 211.281ZM139.5 205.68C139.944 206.053 140.602 205.668 141.043 205.292C141.521 204.883 141.999 204.474 142.477 204.066C142.206 203.807 141.774 203.866 141.408 203.942C140.343 204.162 139.279 204.382 138.214 204.602C138.643 204.961 139.071 205.321 139.5 205.68ZM156.216 200.459C156.484 200.792 157.048 200.721 157.355 200.423C157.663 200.125 157.776 199.684 157.864 199.265C157.885 199.164 157.905 199.056 157.863 198.962C157.756 198.723 157.401 198.795 157.164 198.906C156.526 199.203 155.775 199.91 156.216 200.459Z" fill="white"/>
<path id="Shape_2" fill-rule="evenodd" clip-rule="evenodd" d="M72.7972 164.75C75.4256 151.75 84.4124 140.867 95.5711 133.698C89.9293 141.432 72.6157 154.115 78.1806 168.245C87.0759 190.832 121.68 194.384 120.477 194.63C100.01 198.803 70.8402 174.429 72.7972 164.75Z" fill="#E7EAEE"/>
<g id="Food">
<path id="Combined Shape" fill-rule="evenodd" clip-rule="evenodd" d="M138.264 51.9371C136.841 52.1099 135.586 53.2502 135.279 54.6511C146.804 48.4541 160.726 46.8609 173.353 50.2938C173.364 56.6621 168.897 62.7873 162.83 64.7229L149.676 68.9191C153.146 69.3039 156.712 68.7951 159.935 67.4551C161.081 69.2598 162.967 70.5778 165.056 71.0323L161.013 71.9189C161.609 73.7353 162.826 75.3415 164.413 76.4065C163.066 75.9452 161.567 75.9404 160.217 76.3933L161.122 79.6807C155.161 78.8537 148.79 79.6655 143.769 82.984C138.748 86.3024 135.376 92.4025 136.28 98.353C137.339 91.8835 141.773 86.0628 147.729 83.3231C153.684 80.5834 160.989 81.0042 166.591 84.4097L162.791 87.2243C164.25 87.8048 165.979 87.6565 167.319 86.836C170.243 88.13 169.433 93.4812 166.257 93.8519L170.459 94.144C171.187 101.289 166.773 108.658 160.13 111.387C153.486 114.116 145.167 111.979 140.662 106.385C135.07 109.241 135.462 117.896 139.448 122.748C142.23 126.135 146.061 128.336 149.899 130.54C151.559 131.493 153.22 132.447 154.798 133.498C163.179 139.081 169.428 147.788 172.034 157.516C167.482 160.563 163.433 164.36 160.1 168.707C165.032 168.477 169.862 166.465 173.498 163.126L174.275 170.638C170.282 171.867 166.695 174.377 164.171 177.706C167.729 178.069 171.399 177.237 174.453 175.377C173.359 184.02 171.384 192.552 168.57 200.797L159.393 200.722C161.57 194.705 163.775 188.232 162.171 182.037C160.567 175.843 153.373 170.73 147.71 173.709C154.223 168.46 159.154 161.274 161.71 153.309L145.31 174.479L132.725 174.585C132.329 168.656 131.949 162.578 133.634 156.88C135.32 151.181 139.529 145.846 145.328 144.547C145.957 144.406 146.627 144.291 147.305 144.175L147.305 144.175L147.305 144.175C150.14 143.689 153.128 143.177 153.961 140.616C144.56 140.069 135.137 146.087 131.679 154.845C129.215 161.087 129.649 168.043 130.121 174.737C121.431 173.483 112.532 173.685 103.907 175.33C102.41 170.226 100.857 165.008 97.7164 160.716C94.5756 156.423 89.4768 153.167 84.1843 153.697C92.7077 154.964 96.9298 164.435 100.144 172.43C103.358 180.425 109.192 189.558 117.773 188.767C120.216 188.541 120.994 192.555 119.121 194.141C117.249 195.727 114.466 195.425 112.068 194.9C99.7193 192.198 88.1897 185.857 79.2941 176.875C77.562 175.126 75.8871 173.213 75.0868 170.885C74.0994 168.013 74.5594 164.842 75.4085 161.926C79.7462 147.03 93.0955 136.824 105.782 127.894C112.607 123.089 112.362 111.183 105.345 106.663C100.151 111.383 93.2252 114.684 86.249 113.914C79.2728 113.144 72.6703 107.432 72.4454 100.417C74.6364 100.224 76.784 99.5512 78.6937 98.4599C76.8192 97.7938 74.7066 97.8223 72.8508 98.5386C72.3461 96.648 72.7146 94.5429 73.8315 92.9362L77.809 92.5112C77.0094 91.6071 75.8941 90.9878 74.704 90.7871C77.5745 86.0038 84.2369 84.6947 89.5761 86.311C94.9152 87.9273 99.2392 91.7782 103.376 95.5206C99.0624 86.0629 87.3656 83.0144 77.1529 81.0763L81.6094 78.4361C79.034 77.7342 76.1926 78.0642 73.8466 79.3377C75.3781 81.235 77.4455 82.695 79.7459 83.5038C76.0692 88.7373 69.5797 91.8609 63.1957 91.4698C56.9192 91.0854 50.527 93.0071 45.5029 96.7888C53.6673 93.4691 62.5865 92.0216 71.3818 92.5889L69.9199 98.923C64.8427 99.8724 59.9977 102.04 55.9064 105.193L69.7346 100.523C71.1203 107.607 76.7234 113.696 83.6681 115.664C90.6127 117.633 98.5774 115.39 103.474 110.086C108.671 111.117 109.918 118.621 107.077 123.093C104.828 126.634 101.148 128.84 97.5008 131.027C96.5418 131.601 95.585 132.175 94.657 132.771C83.4983 139.94 75.4255 151.75 72.7971 164.75C70.1687 177.749 73.0195 191.768 80.5167 202.708C68.1337 207.395 59.9008 221.192 61.6567 234.315C61.6969 234.615 61.7415 234.918 61.7863 235.221L61.7864 235.222C62.0513 237.017 62.3218 238.849 61.7125 240.535C61.0002 242.507 58.442 243.967 56.7606 242.715C51.9643 239.144 46.3396 236.692 40.4586 235.61C36.9965 234.973 31.9156 236.405 32.6532 239.847C32.8991 240.994 33.8028 241.87 34.68 242.65C43.7818 250.74 54.8678 256.582 66.6868 259.515C69.3614 260.179 72.3324 260.662 74.7567 259.352C78.2081 257.487 78.7747 253.304 79.3439 249.103C79.9034 244.973 80.4653 240.824 83.7723 238.84C86.7586 237.049 90.4383 238.053 93.8874 238.995C94.3481 239.121 94.8047 239.245 95.255 239.362C103.456 241.488 111.962 240.677 120.47 239.865C123.829 239.545 127.189 239.224 130.53 239.084C139.801 238.696 149.13 239.724 158.094 242.122C161.216 242.957 164.32 241.399 167.276 239.915L167.277 239.915L167.278 239.914L167.279 239.914C167.717 239.694 168.152 239.476 168.583 239.267C171.924 237.651 176.504 236.799 178.888 239.644C179.83 240.769 180.178 242.211 180.528 243.66C180.701 244.377 180.875 245.096 181.121 245.779C182.727 250.233 187.541 252.962 192.268 253.227C196.995 253.491 201.611 251.698 205.742 249.385C213.568 245.002 220.262 238.617 225.01 231.006C225.562 230.121 226.108 229.136 225.998 228.098C225.705 225.354 221.76 225.139 219.128 225.965C212.008 228.201 205.462 232.242 200.272 237.606C197.833 235.381 196.645 231.865 197.237 228.617C211.744 218.586 227.19 208.211 244.784 206.965C247.54 206.769 250.338 206.8 253.132 206.83H253.132H253.133H253.133H253.133H253.133H253.134H253.134H253.134H253.134H253.135H253.135H253.135H253.135H253.135H253.136H253.136H253.136H253.136H253.137H253.137H253.137H253.137H253.137H253.138H253.138H253.138H253.138H253.139H253.139H253.139H253.139H253.14H253.14H253.14C259.215 206.895 265.272 206.961 270.841 204.714C281.102 200.574 287.029 186.571 280.601 177.565C275.655 170.637 265.986 169.002 257.507 169.761C243.176 171.044 229.383 177.643 219.39 187.995C216.614 190.871 214.081 194.055 211.552 197.232C206.08 204.108 200.63 210.957 192.787 214.606C187.462 207.241 179.117 202.13 170.136 200.734C176.797 188.442 178.522 173.563 174.848 160.074C171.175 146.585 162.143 134.634 150.17 127.418C149.519 127.026 148.856 126.644 148.192 126.261L148.191 126.261L148.191 126.26L148.191 126.26L148.19 126.26L148.19 126.26L148.19 126.26L148.19 126.26L148.189 126.259L148.189 126.259L148.189 126.259L148.189 126.259L148.188 126.259L148.188 126.259L148.188 126.258L148.187 126.258L148.187 126.258L148.187 126.258L148.187 126.258L148.186 126.258L148.186 126.258L148.186 126.257L148.186 126.257C145.17 124.519 142.125 122.763 140.07 119.996C137.562 116.616 137.312 111.065 140.831 108.756C145.51 115.177 155.33 116.563 162.274 112.703C169.218 108.843 173.172 100.742 173.312 92.7983L191.274 92.3412C185.236 90.3213 178.641 89.9984 172.434 91.4188L170.282 85.5587L184.534 83.6901C179.276 82.3658 173.641 82.5768 168.496 84.2907C167.327 82.0012 165.545 80.0285 163.385 78.6342C165.413 78.8642 167.519 78.3213 169.183 77.1396L164.507 73.4181C166.444 73.7741 168.546 72.5042 169.133 70.624L161.648 67.5965L191.193 53.4583C189.934 53.4362 188.674 53.4825 187.42 53.5971L191.239 51.0718C185.408 51.7766 179.657 50.1353 173.913 48.496C167.967 46.799 162.028 45.1043 156.017 46.0164C153.656 46.3747 151.279 47.1259 148.916 47.8729C144.04 49.4146 139.221 50.938 134.71 48.9516C125.53 44.9098 114.765 44.6138 105.377 48.145C104.547 48.4572 103.704 48.7983 102.852 49.1428L102.852 49.1428L102.852 49.1429C98.1648 51.0389 93.2264 53.0367 88.8482 50.8785C83.5792 48.2812 77.1893 49.8003 71.9062 52.3689C70.0517 53.2706 68.2517 54.2963 66.4533 55.3212C63.1285 57.2158 59.8089 59.1075 56.1588 60.2073C64.3961 65.2559 73.7245 68.514 83.3137 69.6916C84.4916 70.6016 84.0802 72.6251 82.9052 73.5388C81.7302 74.4525 80.1413 74.5685 78.6549 74.6478C79.0376 77.2961 82.4498 78.9732 84.7802 77.6585C83.8008 77.8405 83.7278 76.2495 84.1347 75.3402L86.6736 69.6664C88.6454 70.3904 91.0994 69.2287 91.7893 67.2447C86.9064 67.8324 81.84 68.4042 77.1624 66.8851C72.4847 65.366 68.3053 61.1282 68.5246 56.2149C78.9413 50.1796 92.9253 50.9968 102.568 58.2044C101.824 56.0314 99.9935 54.2611 97.797 53.5893C100.333 51.0925 103.7 49.4539 107.229 48.9984C105.132 50.6574 104.172 53.6234 104.897 56.1968L114.312 47.5378C112.767 50.3065 111.902 53.4509 111.813 56.6199C115.305 54.3382 118.087 50.9862 119.686 47.1337L123.874 47.7218C121.31 49.8881 119.881 53.3304 120.158 56.6756C123.349 54.6917 125.823 51.58 127.037 48.0238C130.97 48.6591 134.789 49.9903 138.264 51.9371ZM253.953 205.225C251.847 205.155 249.739 205.086 247.645 205.145C232.053 205.588 217.558 213.182 204.694 222.003L204.525 222.119L204.16 222.369L204.156 222.372L204.152 222.375C201.711 224.054 199.246 225.749 196.459 226.74L193.185 217.198C193.009 216.686 192.901 215.982 193.377 215.725C198.383 213.018 202.954 209.509 206.863 205.372C209.467 202.616 211.777 199.587 214.084 196.562C217.351 192.278 220.613 188.001 224.698 184.515C231.22 178.949 239.432 175.763 247.671 173.386C253.768 171.628 260.158 170.248 266.43 171.214C272.702 172.18 278.877 175.923 281.177 181.838C283.003 186.535 282.109 192.076 279.295 196.258C276.481 200.439 271.911 203.285 267.014 204.478C262.756 205.517 258.358 205.371 253.953 205.225ZM74.5551 225.438C74.8847 226.222 75.0927 227.269 74.4345 227.807C73.5868 228.501 72.3842 227.607 71.6719 226.775L65.6007 219.68C64.1472 223.458 63.4804 227.537 63.655 231.582C63.69 232.394 63.7562 233.217 63.8226 234.044C64.0764 237.203 64.3335 240.404 62.8703 243.144C62.2285 244.346 61.1364 245.449 59.777 245.537C59.0065 245.587 58.2562 245.305 57.545 245.004C55.5958 244.18 53.6751 243.167 51.755 242.154C46.8125 239.547 41.8738 236.942 36.4617 237.564C35.7226 237.649 34.8023 238.013 34.8311 238.756C34.844 239.09 35.0612 239.375 35.2724 239.633C43.0754 249.163 55.2776 253.784 67.0897 257.273C69.0215 257.844 71.0576 258.4 73.0248 257.966C74.992 257.533 76.818 255.759 76.5805 253.759C75.952 248.467 77.6102 242.942 81.0492 238.87C82.4221 237.245 84.1579 235.798 86.2411 235.365C88.7999 234.834 91.3007 235.888 93.7635 236.926C94.3962 237.193 95.0265 237.459 95.6546 237.696C100.469 239.516 105.88 239.715 110.815 238.253C108.886 238.227 107.959 235.914 107.559 234.027C104.969 221.798 103.591 209.312 103.454 196.813C103.439 195.454 102.486 194.252 101.336 193.528C100.363 192.914 99.2527 192.573 98.1489 192.234C97.9488 192.172 97.7488 192.111 97.55 192.048C93.5309 190.775 89.7437 188.773 86.4276 186.17C86.0098 185.841 85.5982 185.503 85.1865 185.165C83.9174 184.122 82.6472 183.078 81.1902 182.33C79.2606 181.34 76.8725 180.937 74.9386 181.918C74.5072 182.946 75.2873 184.141 76.2855 184.637C77.0415 185.013 77.8884 185.115 78.7334 185.216L78.7341 185.217L78.7347 185.217L78.7352 185.217L78.7358 185.217L78.7364 185.217L78.737 185.217L78.7375 185.217L78.7381 185.217L78.7387 185.217L78.7393 185.217L78.7398 185.217L78.7404 185.218L78.741 185.218L78.7415 185.218L78.7421 185.218L78.7427 185.218L78.7433 185.218L78.7438 185.218L78.7444 185.218L78.745 185.218L78.7455 185.218L78.7461 185.219L78.7467 185.219L78.7473 185.219L78.7478 185.219L78.7484 185.219L78.749 185.219L78.7496 185.219L78.7501 185.219L78.7507 185.219L78.7513 185.219C79.0161 185.251 79.2807 185.283 79.542 185.323C80.813 185.521 82.0501 185.935 83.1841 186.542C84.3752 187.18 85.5033 188.864 84.4418 189.7C84.0065 190.043 83.3963 190.019 82.8436 189.978L76.6097 189.52C78.1294 193.655 80.0669 197.636 82.3832 201.383C82.5911 201.719 82.8686 202.093 83.2641 202.097C89.3716 202.152 96.1918 203.007 100.062 207.732C100.796 208.627 101.398 209.921 100.769 210.893C97.2208 206.609 91.6713 204.058 86.1098 204.154C80.5484 204.25 75.0903 206.991 71.6925 211.395C74.6915 213.402 77.0755 216.316 78.4499 219.652C78.8649 220.66 78.7885 222.309 77.6989 222.286L71.1549 214.273C70.8624 213.915 70.5111 213.527 70.049 213.512C69.6784 213.501 69.3518 213.738 69.0578 213.964C68.4213 214.453 67.7607 214.972 67.4285 215.703C67.0962 216.433 67.2198 217.439 67.912 217.845C70.862 219.578 73.2295 222.284 74.5551 225.438ZM149.162 237.977C153.365 234.472 154.735 228.699 155.864 223.344L159.999 203.721C160.043 203.512 160.094 203.289 160.245 203.137C160.444 202.936 160.756 202.914 161.039 202.906C168.577 202.678 176.602 203.396 182.674 207.869C180.196 209.098 178.031 210.949 176.432 213.205C175.984 213.838 175.609 214.79 176.187 215.309C176.403 215.503 176.705 215.572 176.995 215.592C178.442 215.695 179.764 214.791 180.822 213.798C181.05 213.584 181.274 213.362 181.498 213.141L181.498 213.141C182.314 212.334 183.133 211.523 184.168 211.05C185.487 210.446 187.319 210.615 188.048 211.87C185.695 213.069 183.756 215.063 182.624 217.448C182.329 218.069 182.085 218.787 182.324 219.432C182.563 220.077 183.502 220.455 183.964 219.945L188.51 214.927C188.73 214.684 189.035 214.418 189.343 214.53C189.509 214.59 189.617 214.747 189.712 214.897C192.121 218.677 193.079 223.079 194.04 227.499C194.604 230.088 195.168 232.683 196.026 235.164C196.714 237.151 198.042 239.384 200.145 239.385C201.307 239.386 202.335 238.671 203.255 237.961C204.238 237.202 205.217 236.406 206.2 235.606L206.2 235.606L206.2 235.606L206.2 235.606L206.2 235.606L206.2 235.605L206.2 235.605C210.824 231.843 215.552 227.995 221.374 227.535C222.292 227.462 223.469 227.665 223.685 228.56C223.81 229.08 223.53 229.603 223.251 230.059C218.923 237.143 212.432 242.728 205.261 246.909C201.589 249.049 197.563 250.887 193.313 250.92C189.063 250.953 184.563 248.781 182.957 244.846C182.63 244.043 182.429 243.196 182.229 242.349C181.998 241.37 181.766 240.392 181.339 239.485C180.237 237.147 177.795 235.502 175.214 235.359C172.758 235.223 170.498 236.318 168.244 237.41L168.244 237.41C167.452 237.793 166.661 238.176 165.862 238.506C160.556 240.694 154.318 240.497 149.162 237.977ZM121.11 195.732C119.528 197.082 117.4 197.621 115.326 197.773C111.589 198.047 107.776 197.173 104.533 195.297L105.871 200.363C105.929 200.581 105.997 200.816 106.179 200.951C106.336 201.068 106.545 201.082 106.74 201.093L125.97 202.103C128.773 202.25 131.581 202.398 134.387 202.317C142.257 202.089 150.07 200.034 157.034 196.36C157.436 196.148 157.845 195.922 158.134 195.572C158.479 195.155 158.616 194.608 158.731 194.079C159.706 189.605 159.875 184.956 159.226 180.423C159.067 179.31 158.845 178.168 158.219 177.233C157.593 176.299 156.468 175.616 155.363 175.826C144.046 177.981 132.494 177.315 120.942 176.65C116.589 176.399 112.235 176.148 107.895 176.048C107.12 176.031 106.305 176.027 105.624 176.398C104.943 176.768 104.474 177.649 104.824 178.34C106.803 182.256 110.893 184.755 115.134 185.883C115.438 185.964 115.75 186.043 116.065 186.123C118.808 186.821 121.829 187.589 122.825 190.142C123.581 192.08 122.691 194.382 121.11 195.732ZM151.962 228.922C151.186 232.002 149.556 235.197 146.597 236.352C145.562 236.756 144.441 236.877 143.335 236.98C133.077 237.934 122.709 237.704 112.504 236.296C111.896 236.212 111.256 236.11 110.782 235.72C110.205 235.245 110.01 234.459 109.859 233.728C109.395 231.485 109.036 229.221 108.783 226.945C108.738 226.542 108.85 225.967 109.254 225.998C115.785 226.506 122.334 226.773 128.884 226.798C133.402 226.816 137.956 226.714 142.369 225.743C146.782 224.773 151.085 222.876 154.311 219.712C153.394 221.638 152.999 223.742 152.604 225.849L152.603 225.849L152.603 225.85L152.603 225.85L152.603 225.85L152.603 225.85L152.603 225.85L152.603 225.851L152.603 225.851L152.603 225.851L152.603 225.851L152.603 225.851L152.603 225.852L152.603 225.852L152.603 225.852L152.603 225.852L152.603 225.852L152.603 225.852L152.603 225.853L152.603 225.853L152.603 225.853L152.603 225.853L152.603 225.853L152.602 225.854L152.602 225.854L152.602 225.854L152.602 225.855C152.409 226.883 152.216 227.912 151.962 228.922ZM129.9 216.132C129.481 216.539 129.031 217.023 129.06 217.607C129.09 218.19 129.965 218.626 130.267 218.126C131.915 215.395 134.782 213.432 137.923 212.882C141.065 212.332 144.428 213.205 146.905 215.213C147.163 215.422 147.412 215.643 147.661 215.863C148.249 216.384 148.836 216.904 149.529 217.264C149.885 217.448 150.493 217.453 150.508 217.053C150.513 216.921 150.438 216.802 150.364 216.693C148.585 214.07 145.924 212.057 142.917 211.058C140.281 210.182 137.226 210.127 134.868 211.596C134.012 212.129 133.282 212.839 132.559 213.543L129.9 216.132ZM107.756 214.64C110.028 212.054 113.703 210.909 117.116 211.36C120.529 211.811 123.651 213.734 125.918 216.324C126.318 216.781 126.71 217.437 126.386 217.95C126.114 218.379 125.466 218.41 125.02 218.167C124.632 217.954 124.354 217.594 124.081 217.241L124.041 217.189L123.985 217.116L123.962 217.087C121.954 214.533 118.674 213.034 115.43 213.187C112.185 213.34 109.061 215.141 107.303 217.873C106.845 217.474 106.715 216.791 106.853 216.2C106.991 215.609 107.355 215.096 107.756 214.64ZM141.19 207.866C141.137 208.443 141.9 208.802 142.448 208.613C142.941 208.443 143.284 208.017 143.615 207.607C143.652 207.561 143.689 207.516 143.726 207.471C146.777 203.739 152.586 202.615 156.809 204.939C157.363 204.471 157.395 203.574 157.024 202.951C156.653 202.328 155.977 201.945 155.286 201.725C153.79 201.247 152.166 201.41 150.627 201.721C146.984 202.458 143.304 204.185 141.389 207.37C141.297 207.524 141.207 207.687 141.19 207.866ZM122.504 221.009C123.906 220.473 125.371 220.077 126.868 219.973C130.573 219.715 134.358 221.379 136.674 224.281C135.687 224.986 134.388 224.128 133.375 223.459L133.365 223.452C130.13 221.316 125.71 221.125 122.302 222.974C122.036 223.118 121.768 223.275 121.498 223.434C120.223 224.18 118.898 224.956 117.526 224.567C118.66 222.831 120.567 221.751 122.504 221.009ZM133.019 219.036C133.6 218.734 134.122 218.334 134.643 217.935C135.141 217.554 135.639 217.172 136.189 216.874C137.741 216.035 139.673 215.938 141.301 216.618C141.775 216.816 142.221 217.075 142.666 217.333L142.667 217.334C143.051 217.556 143.435 217.779 143.837 217.963C144.708 218.362 145.745 218.569 146.613 218.163C146.709 218.118 146.809 218.059 146.85 217.961C146.916 217.801 146.798 217.629 146.685 217.499C144.743 215.283 141.701 214.083 138.77 214.375C135.839 214.668 133.094 216.446 131.629 219.002C131.935 219.405 132.571 219.27 133.019 219.036ZM111.32 218.34L111.32 218.341C110.989 218.633 110.659 218.925 110.277 219.142C109.668 219.488 108.849 219.604 108.299 219.172C108.129 218.257 109.052 217.546 109.856 217.077C111.838 215.92 113.969 214.725 116.261 214.844C118.094 214.938 119.768 215.867 121.352 216.796C121.741 217.024 122.141 217.264 122.407 217.628C122.673 217.993 122.773 218.518 122.524 218.895C122.273 219.275 121.743 219.387 121.299 219.284C120.871 219.185 120.501 218.927 120.139 218.676L120.097 218.647C118.816 217.757 117.419 216.937 115.869 216.757C114.479 216.596 113.03 216.987 111.918 217.837C111.711 217.994 111.515 218.167 111.32 218.34L111.32 218.34L111.32 218.34ZM120.599 210.257C121.013 210.793 121.823 210.219 122.28 209.72C123.687 208.182 125.715 207.23 127.797 207.13C129.879 207.03 131.989 207.784 133.537 209.179C133.569 209.208 133.6 209.237 133.632 209.266C133.995 209.596 134.382 209.948 134.865 209.961C135.39 209.976 135.864 209.242 135.447 208.922C133.215 207.207 130.619 205.806 127.811 205.621C125.003 205.436 121.976 206.696 120.676 209.192C120.502 209.526 120.369 209.959 120.599 210.257ZM146.228 209.155C145.987 209.403 145.743 209.655 145.427 209.788C145.057 209.945 144.548 209.869 144.369 209.509C144.179 209.128 144.444 208.684 144.719 208.361C147.421 205.181 152.508 204.357 156.076 206.52C156.622 206.852 157.195 207.495 156.874 208.047C156.488 208.71 155.49 208.286 154.827 207.902C152.174 206.368 148.514 206.854 146.353 209.027C146.311 209.069 146.27 209.112 146.228 209.155L146.228 209.155ZM147.4 209.992C147.246 210.12 147.093 210.264 147.029 210.453C146.849 210.981 147.491 211.476 148.047 211.432C148.45 211.4 148.809 211.204 149.168 211.007C149.305 210.932 149.442 210.858 149.581 210.792C150.812 210.211 152.292 210.35 153.541 210.889C153.66 210.94 153.777 210.995 153.895 211.05C154.268 211.223 154.642 211.397 155.047 211.458C155.579 211.539 156.2 211.362 156.443 210.881C154.325 208.257 149.988 207.83 147.4 209.992ZM114.871 208.821C114.668 209.105 114.237 209.133 113.921 208.985C113.627 208.847 113.407 208.597 113.192 208.352L113.143 208.296C111.659 206.613 109.736 205.32 107.617 204.581C107.066 204.389 106.367 204.008 106.522 203.446C108.043 202.926 109.763 203.334 111.129 204.182C112.495 205.029 113.564 206.273 114.558 207.537C114.852 207.91 115.148 208.435 114.871 208.821ZM132.646 210.395C130.146 208.8 126.732 208.772 124.206 210.326C123.767 210.596 123.316 210.975 123.282 211.49C123.247 212.004 123.946 212.482 124.292 212.1C125.688 210.561 128.238 210.242 129.97 211.389C130.82 211.952 132.042 211.875 132.815 211.21C133.18 211.172 132.956 210.593 132.646 210.395ZM141.399 223.331C143.978 220.875 147.284 218.785 150.838 219.024C151.203 219.049 151.693 219.357 151.472 219.649L142.661 223.462C142.227 223.65 141.587 223.765 141.399 223.331ZM117.02 220.607C117.107 220.656 117.193 220.709 117.28 220.762C117.63 220.975 117.985 221.192 118.388 221.192C118.89 221.192 119.388 220.588 119.069 220.199C118.066 218.976 116.489 218.245 114.907 218.269C113.325 218.293 111.772 219.072 110.806 220.326C110.925 220.781 111.483 220.991 111.948 220.923C112.284 220.874 112.591 220.724 112.898 220.574C113.017 220.516 113.136 220.458 113.257 220.405C114.452 219.888 115.888 219.965 117.02 220.607ZM135.348 220.871C134.997 220.891 134.6 220.623 134.64 220.273C134.655 220.144 134.725 220.028 134.799 219.922C135.614 218.75 137.086 218.152 138.513 218.138C139.94 218.125 141.326 218.631 142.586 219.301C142.938 219.488 143.333 219.785 143.276 220.179C142.692 220.8 141.726 220.467 140.883 220.177L140.815 220.154C140.745 220.129 140.676 220.106 140.608 220.083C139.205 219.617 137.611 219.764 136.317 220.477C136.273 220.501 136.228 220.526 136.184 220.551L136.183 220.551L136.183 220.552C135.918 220.702 135.649 220.855 135.348 220.871ZM131.988 204.921C133.457 205.446 134.825 206.252 135.997 207.282C136.078 207.354 136.159 207.427 136.241 207.5C136.64 207.86 137.041 208.222 137.528 208.442C138.115 208.706 138.875 208.713 139.334 208.263C138.319 207.484 137.485 206.471 136.917 205.325C136.61 204.708 135.794 204.595 135.105 204.561L132.088 204.413C131.981 204.556 131.944 204.748 131.988 204.921ZM119.69 207.51C119.431 207.839 119.173 208.167 118.868 208.453C118.349 208.938 117.632 209.293 116.938 209.14C117.644 207.43 118.783 205.9 120.221 204.736C121.247 203.904 122.732 204.087 124.033 204.313C124.103 204.783 123.499 205.018 123.039 205.141C121.975 205.425 120.995 206.019 120.25 206.832C120.053 207.048 119.871 207.279 119.69 207.51ZM107.3 207.864L110.098 209.687C110.492 209.944 110.997 210.207 111.406 209.974C111.786 209.758 111.844 209.201 111.646 208.811C111.448 208.421 111.07 208.16 110.708 207.916L108.43 206.382C107.794 205.954 106.758 205.612 106.412 206.297C106.114 206.886 106.746 207.503 107.3 207.864ZM128.247 215.688C127.794 215.906 127.294 215.523 126.937 215.169L125.772 214.013C125.635 213.877 125.488 213.712 125.511 213.521C125.526 213.4 125.608 213.299 125.692 213.211C126.786 212.067 128.864 212.098 129.923 213.275L128.71 215.192C128.587 215.386 128.454 215.589 128.247 215.688ZM110.616 224.307C111.375 224.573 112.27 224.651 112.939 224.206C111.932 223.048 110.751 222.04 109.449 221.228C109.08 220.997 108.663 220.775 108.232 220.836C107.801 220.897 107.42 221.387 107.628 221.77C108.269 222.942 109.355 223.864 110.616 224.307ZM153.305 213.698L152.23 214.997C152.128 215.12 152.014 215.251 151.857 215.285C151.621 215.336 151.405 215.149 151.235 214.977L149.674 213.396C149.445 213.163 149.511 212.748 149.739 212.514C149.967 212.28 150.305 212.191 150.629 212.152C151.478 212.05 152.357 212.225 153.102 212.644C153.316 212.764 153.541 212.941 153.551 213.187C153.559 213.38 153.428 213.548 153.305 213.698ZM114.827 205.64C115.148 205.986 115.552 206.34 116.023 206.301C116.511 206.261 116.839 205.833 117.161 205.413C117.506 204.963 117.845 204.522 118.366 204.571C118.637 204.125 117.898 203.768 117.376 203.759L113.324 203.695C113.765 204.387 114.268 205.039 114.827 205.64ZM131.6 224.59L123.17 224.626C123.261 224.19 123.752 223.981 124.182 223.864C126.104 223.343 128.149 223.281 130.099 223.685C130.694 223.809 131.353 224.034 131.6 224.59ZM140.52 221.67L137.731 221.796C137.43 221.809 137.045 221.896 137.008 222.194C136.992 222.328 137.059 222.456 137.123 222.573C137.369 223.02 137.631 223.484 138.056 223.765C138.481 224.046 139.121 224.074 139.451 223.686C139.565 223.553 139.632 223.386 139.698 223.22C139.78 223.016 139.861 222.814 140.027 222.677C140.138 222.587 140.272 222.538 140.407 222.488C140.511 222.45 140.614 222.412 140.708 222.356C140.923 222.226 141.06 221.887 140.86 221.734C140.767 221.662 140.638 221.664 140.52 221.67ZM116.073 222.039C116.46 222.289 116.695 222.837 116.446 223.225C116.149 223.689 115.777 224.201 115.229 224.255C114.521 224.325 114.014 223.612 113.67 222.99C113.552 222.778 113.431 222.544 113.474 222.306C113.565 221.806 114.234 221.712 114.742 221.737C115.202 221.76 115.686 221.79 116.073 222.039ZM153.174 217.649C153.591 217.684 153.965 217.401 154.258 217.102C155.151 216.189 155.718 214.964 155.838 213.693C155.543 213.504 155.182 213.797 154.955 214.065L152.674 216.762C152.404 217.081 152.756 217.615 153.174 217.649ZM108.505 211.654C107.907 211.977 107.089 211.811 106.665 211.281C106.241 210.75 106.26 209.916 106.706 209.404C106.768 209.333 106.842 209.265 106.935 209.246C107.069 209.219 107.198 209.299 107.311 209.376L108.42 210.133C108.676 210.307 108.954 210.514 109.008 210.818C109.069 211.161 108.811 211.489 108.505 211.654ZM139.5 205.68C139.944 206.053 140.602 205.668 141.043 205.292L142.477 204.066C142.206 203.807 141.774 203.866 141.408 203.942L138.214 204.602L139.5 205.68ZM74.9412 177.593C74.6151 177.303 74.5316 176.829 74.5218 176.393C74.5107 175.901 74.5684 175.407 74.6927 174.931L76.8092 177.686C76.9355 177.851 77.0392 178.133 76.8526 178.224C76.588 178.046 76.2626 177.996 75.9394 177.946C75.5737 177.889 75.2106 177.833 74.9412 177.593ZM156.216 200.459C156.484 200.792 157.048 200.721 157.355 200.423C157.663 200.125 157.776 199.684 157.864 199.265C157.885 199.164 157.905 199.056 157.863 198.962C157.756 198.723 157.401 198.795 157.164 198.906C156.526 199.203 155.775 199.91 156.216 200.459ZM132.264 78.6297C132.523 77.9828 133.126 77.5458 133.719 77.1811C135.512 76.0804 137.502 75.3031 139.565 74.8978C140.059 74.8008 140.647 74.7534 140.99 75.1219C141.376 75.5364 141.183 76.2533 140.755 76.6238C140.374 76.9539 139.872 77.0894 139.381 77.2218L139.271 77.2515L139.201 77.2707C137.551 77.7277 135.998 78.5347 134.676 79.6228C134.167 80.0411 133.565 80.5338 132.93 80.3575C132.259 80.1709 132.005 79.2767 132.264 78.6297ZM95.1418 78.7809C94.6626 78.5216 94.3391 77.8742 94.6373 77.4182C94.8107 77.1529 95.134 77.0321 95.4412 76.9541C97.9293 76.3226 100.505 77.4375 102.756 78.6723C103.263 78.9503 103.784 79.253 104.103 79.7347C104.423 80.2163 104.469 80.9299 104.053 81.3303C103.355 82.0004 102.25 81.3111 101.462 80.7494C100.083 79.7657 98.4265 79.1762 96.7362 79.0677C96.6608 79.0629 96.5848 79.0589 96.5087 79.0548H96.5086C96.0357 79.0298 95.5544 79.0043 95.1418 78.7809ZM121.225 114.454L119.589 109.786C118.132 110.838 117.043 112.389 116.549 114.116C116.102 113.752 116.085 113.137 116.069 112.533C116.064 112.353 116.059 112.173 116.043 112.002C115.946 110.984 115.307 110.034 114.401 109.561C113.495 109.088 112.35 109.106 111.46 109.609C111.696 110.125 112.252 110.289 112.825 110.458C113.205 110.57 113.593 110.685 113.899 110.906C114.544 111.373 114.729 112.253 114.739 113.05C114.742 113.249 114.737 113.45 114.732 113.652V113.652V113.652C114.716 114.254 114.701 114.857 114.889 115.424C114.95 115.607 115.036 115.789 115.184 115.913C115.604 116.262 116.24 115.972 116.665 115.629C117.625 114.854 118.38 113.828 118.834 112.68C119.234 113.08 119.381 113.641 119.528 114.197C119.571 114.361 119.614 114.524 119.663 114.682C119.88 115.381 120.398 116.127 121.128 116.093C121.615 116.071 122.007 115.704 122.352 115.36L124.332 113.382C124.571 113.143 124.829 112.84 124.753 112.512C124.679 112.197 124.305 112.028 123.984 112.073C123.664 112.118 123.39 112.32 123.139 112.525C122.436 113.099 121.793 113.746 121.225 114.454ZM116.702 95.7305C116.808 94.875 116.866 93.8782 116.237 93.2883C115.065 92.1875 114.037 90.9317 113.191 89.5639C112.822 88.9674 112.475 88.2704 112.651 87.5914C112.917 86.5657 114.164 86.1948 115.216 86.0667C116.898 85.8618 118.602 85.827 120.291 85.9631C121.017 86.0215 121.787 86.1306 122.343 86.6016C122.898 87.0725 123.099 88.0275 122.562 88.5204C119.934 90.937 118.394 94.4968 118.434 98.0674C119.409 98.7001 120.4 99.3405 121.51 99.6828C122.621 100.025 123.886 100.036 124.888 99.4471C125.31 99.1991 125.664 98.8596 126.018 98.5195C126.263 98.2847 126.508 98.0495 126.777 97.8438C127.433 97.3404 128.373 97.0285 129.076 97.464L126.4 99.928C125.333 100.91 124.009 101.966 122.597 101.636C122.13 101.526 121.72 101.273 121.308 101.019C121.062 100.868 120.817 100.717 120.558 100.595C119.176 99.9449 117.554 100.188 116.061 100.509C115.97 100.528 115.878 100.548 115.787 100.568C114.377 100.873 112.919 101.189 111.535 100.81C110.062 100.405 108.77 98.8741 109.231 97.4177C110.158 98.7751 111.773 99.6354 113.417 99.648C114.048 99.6528 114.699 99.532 115.222 99.1784C116.292 98.4548 116.544 97.0129 116.702 95.7305Z" fill="#00160A"/>
</g>
</g>
</g>
</svg>
